<?xml version="1.0" encoding="UTF-8"?>
<!DOCTYPE svg PUBLIC "-//W3C//DTD SVG 1.1//EN" "http://www.w3.org/Graphics/SVG/1.1/DTD/svg11.dtd">
<svg xmlns="http://www.w3.org/2000/svg" version="1.1" width="500px" height="500px" style="shape-rendering:geometricPrecision; text-rendering:geometricPrecision; image-rendering:optimizeQuality; fill-rule:evenodd; clip-rule:evenodd" xmlns:xlink="http://www.w3.org/1999/xlink">
<g><path style="opacity:1" fill="#fefefe" d="M -0.5,-0.5 C 166.167,-0.5 332.833,-0.5 499.5,-0.5C 499.5,166.167 499.5,332.833 499.5,499.5C 332.833,499.5 166.167,499.5 -0.5,499.5C -0.5,332.833 -0.5,166.167 -0.5,-0.5 Z"/></g>
<g><path style="opacity:1" fill="#060606" d="M 239.5,116.5 C 270.45,114.182 294.117,126.015 310.5,152C 320.168,152.678 326.668,157.511 330,166.5C 330.667,175.5 330.667,184.5 330,193.5C 327.693,201.14 322.693,206.14 315,208.5C 305.727,231.945 288.894,246.612 264.5,252.5C 263.764,256.791 261.431,259.958 257.5,262C 246.48,266.4 238.647,263.233 234,252.5C 232.619,240.719 237.785,234.052 249.5,232.5C 251.167,232.667 252.833,232.833 254.5,233C 258.327,234.865 261.827,237.031 265,239.5C 296.531,228.113 309.865,205.779 305,172.5C 296.551,145.221 278.051,130.887 249.5,129.5C 222.504,130.753 204.337,144.086 195,169.5C 192.42,182.411 193.253,195.078 197.5,207.5C 183.712,211.189 174.212,206.522 169,193.5C 168.333,184.833 168.333,176.167 169,167.5C 172.131,158.175 178.631,153.008 188.5,152C 200.383,132.732 217.383,120.899 239.5,116.5 Z"/></g>
<g><path style="opacity:1" fill="#5b99c9" d="M 241.5,147.5 C 263.752,145.534 278.919,154.867 287,175.5C 290.72,199.915 280.886,215.749 257.5,223C 242.5,223.667 227.5,223.667 212.5,223C 216.929,220.739 220.596,217.572 223.5,213.5C 211.598,201.162 208.431,186.829 214,170.5C 220.071,158.913 229.237,151.246 241.5,147.5 Z"/></g>
</svg>
